<svg xmlns="http://www.w3.org/2000/svg" viewBox="0 0 640 360" role="img" aria-label="light salad dinner">
  <defs>
    <linearGradient id="table" x1="0" x2="1" y1="0" y2="1">
      <stop offset="0" stop-color="#2b2115"/>
      <stop offset="1" stop-color="#11120c"/>
    </linearGradient>
    <radialGradient id="bowl" cx="50%" cy="48%" r="54%">
      <stop offset="0" stop-color="#fff8df"/>
      <stop offset="0.58" stop-color="#f7ead0"/>
      <stop offset="1" stop-color="#b6a886"/>
    </radialGradient>
    <filter id="shadow" x="-20%" y="-20%" width="140%" height="140%">
      <feDropShadow dx="0" dy="16" stdDeviation="18" flood-color="#000" flood-opacity="0.42"/>
    </filter>
  </defs>
  <rect width="640" height="360" fill="url(#table)"/>
  <path d="M0 80c92 34 164 22 244-16 112-52 228-44 396 8v288H0Z" fill="#1d2515" opacity=".62"/>
  <g filter="url(#shadow)">
    <ellipse cx="326" cy="188" rx="190" ry="122" fill="url(#bowl)"/>
    <ellipse cx="326" cy="176" rx="156" ry="90" fill="#273b20"/>
  </g>
  <g opacity=".98">
    <circle cx="228" cy="160" r="30" fill="#e9513c"/>
    <circle cx="282" cy="128" r="24" fill="#f2d66d"/>
    <circle cx="366" cy="132" r="28" fill="#e9513c"/>
    <circle cx="425" cy="188" r="26" fill="#f2d66d"/>
    <circle cx="278" cy="216" r="28" fill="#ec5c41"/>
    <path d="M212 205c38-46 86-80 144-98 34 28 54 62 62 104-66 28-136 30-206-6Z" fill="#7ec956"/>
    <path d="M300 106c36 24 62 52 78 84-62 20-108 16-138-12 12-34 32-58 60-72Z" fill="#a5df62"/>
    <path d="M360 220c30-40 70-66 120-78 2 56-32 90-100 100Z" fill="#66b94b"/>
    <path d="M200 186c46-18 88-16 126 6-42 34-84 46-126 36Z" fill="#4d9f3b"/>
  </g>
  <g fill="#fff3c7" opacity=".92">
    <rect x="468" y="76" width="92" height="10" rx="5" transform="rotate(34 514 81)"/>
    <rect x="88" y="252" width="126" height="9" rx="4.5" transform="rotate(-20 151 256)"/>
  </g>
</svg>
