<svg xmlns="http://www.w3.org/2000/svg" viewBox="0 0 640 360" role="img" aria-label="woman home workout video cover">
  <defs>
    <linearGradient id="room" x1="0" x2="1" y1="0" y2="1">
      <stop offset="0" stop-color="#18242b"/>
      <stop offset=".52" stop-color="#20261d"/>
      <stop offset="1" stop-color="#0f0f0c"/>
    </linearGradient>
    <radialGradient id="light" cx="34%" cy="28%" r="54%">
      <stop offset="0" stop-color="#8ecbff" stop-opacity=".55"/>
      <stop offset="1" stop-color="#8ecbff" stop-opacity="0"/>
    </radialGradient>
    <filter id="drop" x="-30%" y="-30%" width="160%" height="160%">
      <feDropShadow dx="0" dy="16" stdDeviation="18" flood-color="#000" flood-opacity=".45"/>
    </filter>
  </defs>
  <rect width="640" height="360" fill="url(#room)"/>
  <rect width="640" height="360" fill="url(#light)"/>
  <path d="M0 274c114-30 214-24 322 10 104 32 202 28 318-18v94H0Z" fill="#151711"/>
  <rect x="148" y="250" width="356" height="54" rx="27" fill="#b8ff5f" opacity=".22"/>
  <g filter="url(#drop)">
    <circle cx="318" cy="96" r="26" fill="#f0c5a9"/>
    <path d="M292 126c32-18 64-18 96 0l-18 98H306Z" fill="#f6f0dd"/>
    <path d="M306 142c-48 28-86 62-114 104" fill="none" stroke="#f0c5a9" stroke-width="18" stroke-linecap="round"/>
    <path d="M370 142c48 22 82 54 104 96" fill="none" stroke="#f0c5a9" stroke-width="18" stroke-linecap="round"/>
    <path d="M314 218c-32 22-64 50-94 84" fill="none" stroke="#20253a" stroke-width="22" stroke-linecap="round"/>
    <path d="M356 218c34 22 66 50 96 84" fill="none" stroke="#20253a" stroke-width="22" stroke-linecap="round"/>
    <path d="M292 79c18-32 64-34 92-2-10 14-30 20-60 18-16-2-26-7-32-16Z" fill="#1b1716"/>
  </g>
  <g opacity=".42" stroke="#fff7db" stroke-width="2">
    <path d="M48 68h138M48 94h108M486 74h92M508 100h52"/>
  </g>
</svg>
